<?xml version="1.0" standalone="yes"?>
<svg xmlns="http://www.w3.org/2000/svg" width="1358" height="1226">
<path style="fill:#757575; stroke:none;" d="M0 0L0 1221C12.0896 1218.02 24.7208 1216.65 37 1214.59C61.3219 1210.51 85.6802 1206.66 110 1202.59C183.647 1190.24 257.33 1178.12 331 1165.92L1012 1053.08C1098.01 1038.83 1184.01 1024.58 1270 1010.25C1291.32 1006.69 1312.68 1003.31 1334 999.753L1350 997.079C1352.3 996.682 1355.45 996.49 1356.97 994.436C1359.39 991.177 1358 983.854 1358 980L1358 941L1358 793L1358 223C1345.02 222.443 1331.81 219.202 1319 217.08L1247 205.08C1173.32 192.876 1099.67 180.525 1026 168.247C878.688 143.695 731.336 119.326 584 94.9197C495.005 80.1777 406.139 64.4001 317 50.5756C247.555 39.8053 178.331 27.4043 109 15.9197L48 5.75305C31.9361 3.07568 16.3172 0 0 0z"/>
<path style="fill:#ffffff; stroke:none;" d="M16 0C20.8085 2.15881 26.7984 2.38 32 3.24695L62 8.24695L158 24.2469C261.993 41.5791 365.991 58.8512 470 76.0803C668.683 108.992 867.32 142.169 1066 175.08C1130.68 185.794 1195.34 196.571 1260 207.414C1281.33 210.991 1302.66 214.546 1324 218.08C1335.14 219.925 1346.7 222.767 1358 223L1358 0L16 0z"/>
<path style="fill:#000000; stroke:none;" d="M1357 995C1345.29 999.387 1331.33 1000.04 1319 1002.08C1296 1005.89 1272.99 1009.56 1250 1013.41C1175.69 1025.88 1101.31 1037.95 1027 1050.41C791.41 1089.92 555.59 1128.08 320 1167.59C238.367 1181.28 156.659 1194.55 75 1208.08L18 1217.59C11.4203 1218.69 0.643117 1217.75 0 1226L1358 1226L1358 1063L1358 1017C1358 1010.31 1359.6 1001.19 1357 995z"/>
</svg>
