<svg width="25" height="25" viewBox="0 0 25 25" fill="none" xmlns="http://www.w3.org/2000/svg">
<path d="M24.2203 12.6318C24.2203 11.6158 24.1379 10.8743 23.9594 10.1055H12.3574V14.6913H19.1675C19.0303 15.8309 18.2889 17.5472 16.6412 18.7005L16.6181 18.854L20.2865 21.6958L20.5406 21.7212C22.8747 19.5655 24.2203 16.3939 24.2203 12.6318Z" fill="#4285F4"/>
<path d="M12.3575 24.714C15.6939 24.714 18.4948 23.6155 20.5406 21.7208L16.6412 18.7001C15.5978 19.4278 14.1973 19.9358 12.3575 19.9358C9.0897 19.9358 6.31622 17.7802 5.32755 14.8008L5.18264 14.8131L1.36824 17.7651L1.31836 17.9038C3.35041 21.9404 7.52439 24.714 12.3575 24.714Z" fill="#34A853"/>
<path d="M5.32726 14.8011C5.06639 14.0323 4.91542 13.2084 4.91542 12.3572C4.91542 11.5058 5.06639 10.6821 5.31354 9.91317L5.30663 9.74942L1.44443 6.75L1.31807 6.81011C0.480562 8.48521 0 10.3663 0 12.3572C0 14.348 0.480562 16.229 1.31807 17.9041L5.32726 14.8011Z" fill="#FBBC05"/>
<path d="M12.3575 4.77807C14.6778 4.77807 16.243 5.78037 17.1355 6.61797L20.623 3.21286C18.4811 1.22199 15.6938 0 12.3575 0C7.52439 0 3.35041 2.77348 1.31836 6.81012L5.31383 9.91318C6.31622 6.93374 9.0897 4.77807 12.3575 4.77807Z" fill="#EB4335"/>
</svg>
